<?xml version="1.0" encoding="UTF-8"?>
<svg xmlns="http://www.w3.org/2000/svg" viewBox="0 0 1004.92 322.91" width="1280" height="411.38308457711"><g fill="#990ae3"><path d="M431.8 49.39h-33.31v93.84h-21.14V49.39h-33.63V31.14h88.08v18.25z"/><path d="M495.22 108.81h-59.09c2.08 11.85 10.57 19.7 21.46 19.7 8.17 0 14.73-3.68 18.74-9.77l15.69 9.45c-8.01 10.73-21.14 17.13-34.43 17.13-21.94 0-40.99-17.45-40.99-42.44s18.9-42.28 40.03-42.28c27.7 0 41.31 22.1 38.59 48.21zm-58.45-14.9h39.39c-2.4-10.41-9.13-16.97-19.54-16.97-9.76 0-17.13 6.72-19.85 16.97zM537.17 143.55c-3.04.64-6.25.8-9.13.8-14.09 0-20.34-6.73-20.34-20.34V31.14h19.7v90.16c0 6.89 4.16 7.85 9.77 7.21v15.04zM547.42 40.43c0-6.25 5.44-11.37 11.69-11.37 6.09 0 11.53 5.12 11.53 11.37 0 6.25-5.44 11.37-11.53 11.37-6.24 0-11.69-5.13-11.69-11.37zm1.77 102.8V63.17h19.7v80.07h-19.7zM651.67 86.55v56.69h-18.42v-9.29c-6.25 8.17-16.17 11.21-24.5 11.21-17.3 0-27.54-10.89-27.54-24.5 0-15.53 17.46-28.18 38.75-28.18 4.16 0 8.65.32 12.65 1.6V88.8c0-8.01-4.64-12.17-14.09-12.17-8.49 0-16.01 4.32-20.66 9.93L583.93 76.3c7.85-9.13 21.3-15.53 34.91-15.53 21.3-.01 32.83 9.28 32.83 25.78zm-19.05 25.78v-3.52c-3.2-1.12-6.56-1.44-10.73-1.44-14.41 0-21.78 5.76-21.78 12.81 0 5.76 4.96 9.45 12.49 9.45 9.93-.01 20.02-5.93 20.02-17.3z"/></g><g fill="#990ae3"><path d="M202.33 217.2c40.08-23.25 76.19-62.67 87.57-90.78 3.24-23.26 3.89-26.2 4.29-51.8.06-3.55-.17-6.94-.49-10.2-2.34 37.58-50.92 84.86-115.2 115.74-77.53 37.25-135.71 47.28-161.66 18.86 9.01 17.8 14.93 26.45 25.07 39.66 29.94 26.52 92.96 17.65 160.42-21.48z"/><path d="M169.46 153.52c73.14-35.28 124.08-85.47 115.19-118.74C270.07 9.59 240.56 0 208.92 0 115.12 0 0 61.82 0 140.7c0 10.14 2.24 21.48 6.24 33.35 21.4 28.39 86.8 16.33 163.22-20.53zM163.29 265.32c-51.43 20.86-80.88 14.21-97.15 1.2l-.23-.19c25.19 25.12 53.89 42.79 79.06 42.79 44.08 0 104.44-53.48 132.99-136.4-16.1 29.94-50.63 66.71-114.67 92.6z"/></g><g fill="#990ae3"><path d="M343.17 234.25c0-33.78 26.01-58.05 56.94-58.05 16.34 0 30.77 6.66 40.29 16.5l-14.12 13.32c-6.34-6.98-15.54-11.74-26.17-11.74-20.3 0-35.53 16.5-35.53 39.97s15.23 39.97 35.53 39.97c11.42 0 21.25-5.55 27.44-13.32l14.43 13.16c-9.52 10.94-24.58 18.24-41.87 18.24-30.93 0-56.94-24.27-56.94-58.05zM445.32 249.79c0-24.59 18.56-41.87 41.08-41.87 22.68 0 41.24 17.29 41.24 41.87 0 24.74-18.56 42.03-41.24 42.03-22.52.01-41.08-17.28-41.08-42.03zm62.49 0c0-14.75-9.04-25.22-21.41-25.22-12.21 0-21.25 10.47-21.25 25.22 0 14.91 9.04 25.38 21.25 25.38 12.37 0 21.41-10.47 21.41-25.38zM654.69 233.46v56.31h-19.51v-49.65c0-8.09-2.7-14.12-11.74-14.12-8.09 0-16.65 6.66-16.65 20.94v42.83h-19.67v-49.65c0-8.09-2.54-14.12-11.58-14.12-8.09 0-16.81 6.66-16.81 20.94v42.83h-19.51v-79.31h18.88v11.1c5.23-8.88 14.27-13.32 23.32-13.32 10.95 0 19.35 5.71 23.16 14.28 6.03-9.52 15.07-14.28 24.9-14.28 14.9 0 25.21 10.62 25.21 25.22zM751.61 250.43c0 24.43-16.34 41.87-37.75 41.87-9.2 0-17.13-3.81-23.16-10.31v37.91h-19.51V210.46h18.72v9.2c6.03-6.98 14.43-11.26 23.95-11.26 21.41 0 37.75 17.44 37.75 42.03zm-19.67 0c0-14.91-8.88-25.38-20.94-25.38-11.9 0-20.62 10.47-20.62 25.38 0 14.75 8.72 25.22 20.62 25.22 12.06 0 20.94-10.47 20.94-25.22zM827.9 233.62v56.15h-18.24v-9.2c-6.19 8.09-16.02 11.1-24.27 11.1-17.13 0-27.28-10.79-27.28-24.27 0-15.39 17.29-27.92 38.38-27.92 4.12 0 8.57.32 12.53 1.59v-5.23c0-7.93-4.6-12.05-13.96-12.05-8.41 0-15.86 4.28-20.46 9.83l-13.8-10.15c7.77-9.04 21.1-15.39 34.58-15.39 21.1 0 32.52 9.2 32.52 25.54zm-18.87 25.53v-3.49c-3.17-1.11-6.5-1.43-10.63-1.43-14.28 0-21.57 5.71-21.57 12.69 0 5.71 4.92 9.36 12.37 9.36 9.84 0 19.83-5.87 19.83-17.13zM915.93 233.93v55.83h-19.67v-49.17c0-8.41-2.86-14.59-13.17-14.59-9.36 0-19.35 6.82-19.35 21.25v42.51h-19.51v-79.31h18.88v11.74c5.55-9.36 15.7-13.96 26.01-13.96 15.87.01 26.81 10.79 26.81 25.7zM984.78 210.46h20.14l-30.14 77.24c-8.72 22.36-20.94 32.2-29.66 35.21l-9.36-13.96c6.5-3.65 12.85-7.93 19.03-20.78l-32.04-77.72h21.1l20.94 54.25 19.99-54.24z"/></g></svg>
